<svg width="86" height="56" viewBox="0 0 86 56" fill="none" xmlns="http://www.w3.org/2000/svg">
    <path fill-rule="evenodd" clip-rule="evenodd"
          d="M80.7578 3.63082H5.84114C4.69975 3.63082 3.77447 4.62268 3.77447 5.8462V50.1539C3.77447 51.3774 4.69975 52.3693 5.84114 52.3693H80.7578C81.8992 52.3693 82.8245 51.3774 82.8245 50.1539V5.8462C82.8245 4.62268 81.8992 3.63082 80.7578 3.63082ZM5.84114 0.307739C2.98766 0.307739 0.674469 2.78739 0.674469 5.8462V50.1539C0.674469 53.2127 2.98766 55.6924 5.84114 55.6924H80.7578C83.6113 55.6924 85.9245 53.2127 85.9245 50.1539V5.8462C85.9245 2.78739 83.6113 0.307739 80.7578 0.307739H5.84114Z"
          fill="#7F8FA0"/>
    <path fill-rule="evenodd" clip-rule="evenodd"
          d="M18.4087 40.7811C18.4087 42.8976 17.3296 44.6154 15.9999 44.6154C14.6703 44.6154 13.5911 42.8976 13.5911 40.7811V15.219C13.5911 13.1024 14.6703 11.3846 15.9999 11.3846C17.3296 11.3846 18.4087 13.1024 18.4087 15.219V40.7811ZM31.2555 40.7811C31.2555 42.8976 30.1764 44.6154 28.8468 44.6154C27.5171 44.6154 26.438 42.8976 26.438 40.7811V15.219C26.438 13.1024 27.5171 11.3846 28.8468 11.3846C30.1764 11.3846 31.2555 13.1024 31.2555 15.219V40.7811ZM45.7082 40.7811C45.7082 42.8976 44.6291 44.6154 43.2995 44.6154C41.9698 44.6154 40.8907 42.8976 40.8907 40.7811V15.219C40.8907 13.1024 41.9698 11.3846 43.2995 11.3846C44.6291 11.3846 45.7082 13.1024 45.7082 15.219V40.7811ZM60.1609 40.7811C60.1609 42.8976 59.0818 44.6154 57.7522 44.6154C56.4225 44.6154 55.3434 42.8976 55.3434 40.7811V15.219C55.3434 13.1024 56.4225 11.3846 57.7522 11.3846C59.0818 11.3846 60.1609 13.1024 60.1609 15.219V40.7811ZM73.0078 40.7811C73.0078 42.8976 71.9287 44.6154 70.599 44.6154C69.2694 44.6154 68.1902 42.8976 68.1902 40.7811V15.219C68.1902 13.1024 69.2694 11.3846 70.599 11.3846C71.9287 11.3846 73.0078 13.1024 73.0078 15.219V40.7811Z"
          fill="#7F8FA0"/>
</svg>
